<?xml version="1.0" encoding="utf-8"?>
<!-- Generator: Adobe Illustrator 22.1.0, SVG Export Plug-In . SVG Version: 6.00 Build 0)  -->
<svg version="1.1" id="Laag_1" xmlns="http://www.w3.org/2000/svg" xmlns:xlink="http://www.w3.org/1999/xlink" x="0px" y="0px"
	 viewBox="0 0 100 79" style="enable-background:new 0 0 100 79;" xml:space="preserve">
<style type="text/css">
	.st0{fill:#FFFFFF;}
</style>
<g>
	<g>
		<path class="st0" d="M87.7,35.4c-0.1,2.9-1.2,5.3-2.9,7.5c-1.4,1.8-3.7,3-4.5,5.2c-0.9,2.3,0.2,5.1,1,7.3c1.2,3.2,2.7,6.4,3.9,9.6
			c0.3,0.7,0.5,1.5,0.7,2.3c0.7,2.3-0.9-0.9,2.8-1.4c-1,0.1-2.6-1-3.5-1.4c-6.2-3.2-11.7-8.3-18.4-10.4c-1.1-0.3-2.2-0.3-3.3-0.1
			c-3.8,0.8-7.6,1.2-11.5,1.3c-6.7,0.3-13.4-0.7-19.9-2.5c-7.6-2.1-18.6-7.4-19.5-16.4c-1-9.6,10.7-15.4,18.1-17.9
			c11.9-4,25.4-3.8,37.4-0.4C76.1,20.3,87.4,25.8,87.7,35.4c0.2,4.8,7.7,4.8,7.5,0C94.4,12,61.1,6.9,43.5,8.3
			C27.7,9.6-3.3,21.4,6.8,43c4.3,9.2,14.1,14.2,23.4,17c5.9,1.8,12.1,2.5,18.3,2.7c3.6,0.1,7.3-0.1,10.9-0.6
			c2.1-0.2,4.6-1.4,6.5-0.6c7.1,3.3,13,9.5,20.7,11.6c9,2.4,6.6-8.1,4.8-12.7c-1.3-3.2-3.8-7.2-3.9-10.6c-0.2,0.6-0.5,1.1-0.7,1.7
			c0.8-0.7,1.6-1.4,2.3-2.2c1.3-1.3,2.3-2.8,3.3-4.3c1.9-2.9,2.7-6.3,2.8-9.7C95.5,30.6,88,30.6,87.7,35.4z"/>
	</g>
</g>
<g>
	<g>
		<path class="st0" d="M34.6,41.1c6.4,0,6.4-10,0-10S28.1,41.1,34.6,41.1L34.6,41.1z"/>
	</g>
</g>
<g>
	<g>
		<path class="st0" d="M49.3,41.1c6.4,0,6.4-10,0-10S42.8,41.1,49.3,41.1L49.3,41.1z"/>
	</g>
</g>
<g>
	<g>
		<path class="st0" d="M64,41.1c6.4,0,6.4-10,0-10S57.6,41.1,64,41.1L64,41.1z"/>
	</g>
</g>
</svg>
